<svg xmlns="http://www.w3.org/2000/svg">
<symbol id="ruble" viewBox="0 0 45 50"><path d="M2 41h7v7a1 1 0 0 0 1 1 1 1 0 0 0 1 0h5a1 1 0 0 0 1 0 1 1 0 0 0 0-1v-7h18a1 1 0 0 0 1-1v-4a1 1 0 0 0-1-1H17v-4h12a15 15 0 0 0 11-4 14 14 0 0 0 5-11 14 14 0 0 0-5-11 15 15 0 0 0-11-4H11a1 1 0 0 0-1 0 1 1 0 0 0-1 1v21H2a1 1 0 0 0-1 1v6a1 1 0 0 0 1 1h7v4H2a1 1 0 0 0-1 0 1 1 0 0 0 0 1v4a1 1 0 0 0 0 1 1 1 0 0 0 1 0zM17 8h11a8 8 0 0 1 6 2 7 7 0 0 1 2 6 7 7 0 0 1-2 5 8 8 0 0 1-6 2H17z"/></symbol>
<symbol id="ruble2" viewBox="0 0 31.07 51.27"><path d="M17.79 26.38a12.75 12.75 0 1 0 0-25.5H7.28A2.25 2.25 0 0 0 5 3.13v27.75H2.78a2.25 2.25 0 0 0 0 4.5H5v12.75a2.25 2.25 0 1 0 4.5 0V35.38h8.26a2.25 2.25 0 0 0 0-4.5H9.53v-4.5zm0-21h.07a8.25 8.25 0 0 1-.07 16.5H9.53V5.38z"/></symbol>
</svg>